<svg xmlns="http://www.w3.org/2000/svg" class="qodef-svg-shape-3" width="801.829" height="1116.511" viewBox="0 0 801.829 1116.511"><g fill="none" stroke="#ac835d" stroke-width="2" data-name="Group 539" opacity=".264"><path data-name="Rectangle 542" stroke-miterlimit="10" d="M1.642 1h266.262v266.262H1.642z" style="stroke-dasharray: 120%; stroke-dashoffset: 0%;"></path><path data-name="Line 260" stroke-miterlimit="10" d="M534.165 983.22H267.903" style="stroke-dasharray: 120%; stroke-dashoffset: 0%;"></path><path data-name="Line 261" stroke-miterlimit="10" d="M801.83 983.22H534.166" style="stroke-dasharray: 120%; stroke-dashoffset: 0%;"></path><path data-name="Line 262" stroke-miterlimit="10" d="M534.166 1116.351v-1.254" style="stroke-dasharray: 120%; stroke-dashoffset: 0%;"></path><path data-name="Path 3201" d="M402.316 304.522h130.567V173.95Z" stroke-linecap="round" stroke-linejoin="round" style="stroke-dasharray: 120%; stroke-dashoffset: 0%;"></path><path data-name="Path 3202" d="M269.185 305.159h130.569V174.59Z" stroke-linecap="round" stroke-linejoin="round" style="stroke-dasharray: 120%; stroke-dashoffset: 0%;"></path><path data-name="Line 263" stroke-miterlimit="10" d="M600.732 638.628h-66.566" style="stroke-dasharray: 120%; stroke-dashoffset: 0%;"></path><path data-name="Path 3203" d="M600.731 753.948v150.943h-66.566V771.76" stroke-miterlimit="10" style="stroke-dasharray: 120%; stroke-dashoffset: 0%;"></path><path data-name="Path 3204" d="M600.731 638.628h66.566V904.89h-66.566V753.948" stroke-miterlimit="10" style="stroke-dasharray: 120%; stroke-dashoffset: 0%;"></path><path data-name="Path 3205" d="M467.601 305.8h-199.7v66.566h532.525V305.8h-199.7" stroke-miterlimit="10" style="stroke-dasharray: 120%; stroke-dashoffset: 0%;"></path><path data-name="Rectangle 543" stroke-miterlimit="10" d="M1.641 983.221v-66.566h266.262v66.566z" style="stroke-dasharray: 120%; stroke-dashoffset: 0%;"></path><path data-name="Path 3206" d="M201.339 850.089H1.639v66.566h266.263v-66.566" stroke-miterlimit="10" style="stroke-dasharray: 120%; stroke-dashoffset: 0%;"></path><path data-name="Path 3207" d="M267.904 850.09v-66.566H1.641v66.566h199.7" stroke-miterlimit="10" style="stroke-dasharray: 120%; stroke-dashoffset: 0%;"></path><path data-name="Rectangle 544" stroke-miterlimit="10" d="M1.642 267.262h66.566v371.366H1.642z" style="stroke-dasharray: 120%; stroke-dashoffset: 0%;"></path><path data-name="Rectangle 545" stroke-miterlimit="10" d="M68.207 267.262h66.566v371.366H68.207z" style="stroke-dasharray: 120%; stroke-dashoffset: 0%;"></path><path data-name="Rectangle 546" stroke-miterlimit="10" d="M134.773 267.262h66.566v371.366h-66.566z" style="stroke-dasharray: 120%; stroke-dashoffset: 0%;"></path><path data-name="Rectangle 547" stroke-miterlimit="10" d="M201.338 267.262h66.566v371.366h-66.566z" style="stroke-dasharray: 120%; stroke-dashoffset: 0%;"></path><path data-name="Rectangle 548" stroke-miterlimit="10" d="M667.297 638.628h66.566V904.89h-66.566z" style="stroke-dasharray: 120%; stroke-dashoffset: 0%;"></path><path data-name="Rectangle 549" stroke-miterlimit="10" d="M532.911 174.59V1h266.262v173.59z" style="stroke-dasharray: 120%; stroke-dashoffset: 0%;"></path><path data-name="Rectangle 550" stroke-miterlimit="10" d="M733.862 638.628h66.566V904.89h-66.566z" style="stroke-dasharray: 120%; stroke-dashoffset: 0%;"></path><path data-name="Path 5140" d="M134.773 1A133.131 133.131 0 1 1 1.642 134.131 133.131 133.131 0 0 1 134.773 1Z" style="stroke-dasharray: 120%; stroke-dashoffset: 0%;"></path><path data-name="Path 5139" d="M534.166 505.497a133.131 133.131 0 1 1-133.131 133.131 133.131 133.131 0 0 1 133.131-133.131Z" style="stroke-dasharray: 120%; stroke-dashoffset: 0%;"></path><path data-name="Path 5141" d="M267.904 783.525a66.566 66.566 0 1 1-66.566 66.566 66.566 66.566 0 0 1 66.566-66.566Z" style="stroke-dasharray: 120%; stroke-dashoffset: 0%;"></path><path data-name="Path 3208" d="M534.166 239.235a66.566 66.566 0 1 1-66.566 66.566" stroke-miterlimit="10" style="stroke-dasharray: 120%; stroke-dashoffset: 0%;"></path><path data-name="Path 3209" d="M268.544 638.628H1c0 80.024 59.892 144.9 133.772 144.9s133.772-64.876 133.772-144.9Z" stroke-miterlimit="10" style="stroke-dasharray: 120%; stroke-dashoffset: 0%;"></path><path data-name="Path 3210" d="M534.165 638.628h266.263V904.89H534.165V771.759" stroke-miterlimit="10" style="stroke-dasharray: 120%; stroke-dashoffset: 0%;"></path><path data-name="Path 3211" d="M534.165 505.497V372.366c147.055 0 266.263 119.208 266.263 266.262H534.165" stroke-miterlimit="10" style="stroke-dasharray: 120%; stroke-dashoffset: 0%;"></path><path data-name="Path 3212" d="M534.166 904.89c-147.055 0-266.263-119.208-266.263-266.262h266.263Z" stroke-miterlimit="10" style="stroke-dasharray: 120%; stroke-dashoffset: 0%;"></path><path data-name="Path 3213" d="M534.166 505.497V372.366c-147.055 0-266.263 119.208-266.263 266.262h266.263" stroke-miterlimit="10" style="stroke-dasharray: 120%; stroke-dashoffset: 0%;"></path><path data-name="Line 264" stroke-linecap="round" stroke-linejoin="round" d="m798.473 985.175-129.922 129.922" style="stroke-dasharray: 120%; stroke-dashoffset: 0%;"></path><path data-name="Path 3214" d="M666.042 984.475v130.619H535.421Z" stroke-linecap="round" stroke-linejoin="round" style="stroke-dasharray: 120%; stroke-dashoffset: 0%;"></path><path data-name="Path 3215" d="M532.91 984.475v130.619H402.289Z" stroke-linecap="round" stroke-linejoin="round" style="stroke-dasharray: 120%; stroke-dashoffset: 0%;"></path></g></svg>