<svg xmlns="http://www.w3.org/2000/svg" xmlns:xlink="http://www.w3.org/1999/xlink" id="Слой_1" x="0px" y="0px" viewBox="0 0 800 800" style="enable-background:new 0 0 800 800;" xml:space="preserve"><style type="text/css">	.st0{fill:none;stroke:#000000;stroke-width:25;stroke-linecap:round;stroke-linejoin:round;stroke-miterlimit:128;}</style><path class="st0" d="M648,140v527"></path><path class="st0" d="M648,140l120,131.8L648,403.5"></path><path class="st0" d="M648,403.5l120,131.8L648,667"></path><path class="st0" d="M648,403.5L528,535.2"></path><path class="st0" d="M648,403.5L528,271.8"></path><path d="M449.5,104.4c-4.3-2.1-9.4-1.6-13.2,1.4L214.7,278.1H69c-20.7,0-37.5,16.8-37.5,37.5v200c0,20.7,16.8,37.5,37.5,37.5h145.7  l221.6,172.4c5.4,4.2,13.3,3.3,17.5-2.2c1.7-2.2,2.6-4.9,2.6-7.7v-600C456.5,110.8,453.8,106.5,449.5,104.4z M56.5,515.6v-200  c0-6.9,5.6-12.5,12.5-12.5h137.5v225H69C62.1,528.1,56.5,522.5,56.5,515.6z M431.5,690l-200-155.6V296.7l200-155.6V690z   M530.4,404.6c0.1,29.9-11.8,58.5-33,79.6c-4.9,4.9-12.8,4.9-17.7,0s-4.9-12.8,0-17.7c34.2-34.2,34.2-89.6,0-123.7c0,0,0,0,0,0  c-4.9-4.9-4.9-12.8,0-17.7s12.8-4.9,17.7,0C518.6,346.1,530.5,374.8,530.4,404.6z"></path></svg>