<svg xmlns="http://www.w3.org/2000/svg" xmlns:xlink="http://www.w3.org/1999/xlink" fill="#000000" height="800px" width="800px" id="Layer_1" viewBox="0 0 512 512" xml:space="preserve"><g>	<g>		<path d="M501.801,46.592H10.199C4.567,46.592,0,51.158,0,56.791v156.325c0,5.633,4.567,10.199,10.199,10.199h33.657v29.949    c0,116.976,95.168,212.143,212.143,212.143s212.143-95.167,212.143-212.143v-29.949h33.657c5.632,0,10.199-4.566,10.199-10.199    V56.791C512,51.158,507.433,46.592,501.801,46.592z M447.745,253.265c0,105.728-86.017,191.745-191.745,191.745    S64.255,358.994,64.255,253.265v-29.949h383.49V253.265z M491.602,202.917H20.398v-57.764h471.203V202.917z M491.602,124.755    H20.398V66.99h471.203V124.755z"></path>	</g></g><g>	<g>		<path d="M180.526,256.324c-37.118,0-67.315,30.197-67.315,67.315c0,37.118,30.197,67.315,67.315,67.315    c37.118,0,67.315-30.197,67.315-67.315C247.841,286.521,217.644,256.324,180.526,256.324z M180.526,370.555    c-25.869,0-46.916-21.047-46.916-46.916c0-25.869,21.047-46.916,46.916-46.916s46.916,21.047,46.916,46.916    C227.442,349.508,206.395,370.555,180.526,370.555z"></path>	</g></g><g>	<g>		<path d="M424.764,236.47c-5.632,0-10.199,4.566-10.199,10.199c0,64.06-38.168,121.476-97.238,146.272    c-5.193,2.181-7.636,8.158-5.457,13.352c1.64,3.904,5.424,6.254,9.409,6.254c1.316,0,2.655-0.256,3.944-0.798    c66.664-27.986,109.74-92.783,109.74-165.08C434.963,241.036,430.396,236.47,424.764,236.47z"></path>	</g></g><g>	<g>		<path d="M283.486,413.517c-0.572-5.603-5.572-9.684-11.182-9.111c-5.376,0.549-10.86,0.827-16.302,0.827    c-5.632,0-10.199,4.566-10.199,10.199c0,5.633,4.566,10.198,10.198,10.198c6.131,0,12.313-0.314,18.375-0.932    C279.978,424.127,284.057,419.121,283.486,413.517z"></path>	</g></g></svg>