<svg xmlns="http://www.w3.org/2000/svg" xmlns:xlink="http://www.w3.org/1999/xlink" fill="#000000" id="Capa_1" viewBox="0 0 55 55" xml:space="preserve"><g>	<g>		<path d="M45.026,1.788l-5.209-1.736c-0.306-0.102-0.64-0.051-0.901,0.138C38.654,0.377,38.5,0.679,38.5,1v1h-11h-11V1    c0-0.321-0.154-0.623-0.415-0.811c-0.263-0.189-0.597-0.239-0.901-0.138l-5.21,1.736C7.465,2.624,5.5,5.354,5.5,8.002v37.996    c0,2.648,1.965,5.378,4.474,6.214l1.526,0.508V55h2v-1.612l1.684,0.561C15.287,53.983,15.394,54,15.5,54    c0.207,0,0.412-0.064,0.585-0.189C16.346,53.623,16.5,53.321,16.5,53v-1h2h6h3h11v1c0,0.321,0.154,0.623,0.415,0.811    C39.088,53.936,39.293,54,39.5,54c0.106,0,0.213-0.017,0.316-0.051l1.684-0.561V55h2v-2.279l1.526-0.508    c2.509-0.837,4.474-3.566,4.474-6.214V8.002C49.5,5.354,47.535,2.624,45.026,1.788z M20.5,33v-1.5c0-0.827,0.673-1.5,1.5-1.5    c0.827,0,1.5,0.673,1.5,1.5V33H20.5z M20.5,36.5c0-0.827,0.673-1.5,1.5-1.5c0.827,0,1.5,0.673,1.5,1.5V38h-3V36.5z M25.048,34.814    C25.314,34.635,25.5,34.345,25.5,34v-2.5c0-1.93-1.57-3.5-3.5-3.5s-3.5,1.57-3.5,3.5V34c0,0.345,0.186,0.635,0.452,0.814    C18.673,35.317,18.5,35.886,18.5,36.5V38h-2V14h10v2v2v20h-1v-1.5C25.5,35.886,25.327,35.317,25.048,34.814z M28.5,18h1v4h2v-4h1    v4h2v-4h1v4h2v-4h1v25h-10V18z M37.5,16h-2h-1h-2h-1h-2h-1v-2h10v2H37.5z M28.5,12V4h10v8H28.5z M26.5,4v8h-10V4H26.5z     M14.5,51.613l-3.893-1.298C8.923,49.753,7.5,47.777,7.5,45.998V8.002c0-1.779,1.423-3.755,3.107-4.317L14.5,2.387V3v9v2v24v2v11    V51.613z M16.5,40h3h5h2v3v2v5h-1v-5c0-0.552-0.448-1-1-1h-6c-0.552,0-1,0.448-1,1v5h-1V40z M19.5,50v-4h4v4H19.5z M28.5,50v-5h10    v5H28.5z M47.5,45.998c0,1.779-1.423,3.755-3.107,4.317L40.5,51.613V51V3V2.387l3.893,1.298C46.077,4.247,47.5,6.223,47.5,8.002    V45.998z"></path>		<rect x="11.5" y="23" width="2" height="7"></rect>		<rect x="41.5" y="23" width="2" height="7"></rect>	</g></g></svg>