<svg xmlns="http://www.w3.org/2000/svg" xmlns:xlink="http://www.w3.org/1999/xlink" fill="#000000" height="800px" width="800px" id="Layer_1" viewBox="0 0 511.999 511.999" xml:space="preserve"><g>	<g>		<path d="M499.926,29.919H12.074C5.407,29.919,0,35.324,0,41.992v114.097v313.917c0,6.668,5.407,12.074,12.074,12.074h60.405    H439.52h60.405c6.667,0,12.074-5.405,12.074-12.074V156.089V41.992C512,35.324,506.593,29.919,499.926,29.919z M60.405,457.933    H24.147v-289.77h36.257V457.933z M427.446,457.933H84.552v-289.77h342.894V457.933z M487.851,457.933h-36.257v-289.77h36.257    V457.933z M487.853,144.015H24.147V54.066h463.705V144.015z"></path>	</g></g><g>	<g>		<path d="M298.257,67.347h-84.516c-6.667,0-12.074,5.405-12.074,12.074v39.24c0,6.668,5.407,12.074,12.074,12.074h84.516    c6.667,0,12.074-5.405,12.074-12.074v-39.24C310.331,72.753,304.925,67.347,298.257,67.347z M286.184,106.587h-60.369V91.495    h60.369V106.587z"></path>	</g></g><g>	<g>		<path d="M118.034,67.347c-17.477,0-31.694,14.218-31.694,31.694s14.217,31.694,31.694,31.694    c17.477,0,31.694-14.218,31.694-31.694S135.511,67.347,118.034,67.347z M118.034,106.587c-4.161,0-7.546-3.385-7.546-7.546    c0-4.161,3.384-7.546,7.546-7.546c4.161,0,7.546,3.385,7.546,7.546C125.58,103.201,122.195,106.587,118.034,106.587z"></path>	</g></g><g>	<g>		<path d="M393.966,67.347c-17.477,0-31.694,14.218-31.694,31.694s14.217,31.694,31.694,31.694    c17.477,0,31.694-14.218,31.694-31.694S411.443,67.347,393.966,67.347z M393.966,106.587c-4.161,0-7.546-3.385-7.546-7.546    c0-4.161,3.385-7.546,7.546-7.546c4.161,0,7.546,3.385,7.546,7.546C401.512,103.201,398.127,106.587,393.966,106.587z"></path>	</g></g><g>	<g>		<path d="M361.041,187.481H150.958c-6.667,0-12.074,5.405-12.074,12.074s5.407,12.074,12.074,12.074h210.083    c6.667,0,12.074-5.405,12.074-12.074S367.708,187.481,361.041,187.481z"></path>	</g></g><g>	<g>		<path d="M323.763,231.755h-4.98c-6.667,0-12.074,5.405-12.074,12.074c0,6.668,5.407,12.074,12.074,12.074h4.98    c6.667,0,12.074-5.405,12.074-12.074C335.837,237.161,330.43,231.755,323.763,231.755z"></path>	</g></g><g>	<g>		<path d="M393.966,231.755h-32.925c-6.667,0-12.074,5.405-12.074,12.074c0,6.668,5.407,12.074,12.074,12.074h20.851v158.166H130.12    V255.903h151.236c6.667,0,12.074-5.405,12.074-12.074s-5.407-12.074-12.074-12.074H118.046c-6.667,0-12.074,5.405-12.074,12.074    v182.313c0,6.668,5.407,12.074,12.074,12.074h275.92c6.667,0,12.074-5.405,12.074-12.074V243.829    C406.04,237.161,400.633,231.755,393.966,231.755z"></path>	</g></g></svg>