<svg xmlns="http://www.w3.org/2000/svg" xmlns:xlink="http://www.w3.org/1999/xlink" fill="#000000" height="800px" width="800px" id="Capa_1" viewBox="0 0 511 511" xml:space="preserve"><path d="M487.5,104H223v-0.5c0-30.603-24.897-55.5-55.5-55.5H97.687l4.097-24.582c0.041-0.242,0.248-0.418,0.493-0.418H167.5  c4.142,0,7.5-3.358,7.5-7.5S171.642,8,167.5,8h-65.223c-7.608,0-14.038,5.447-15.289,12.952L73.146,104H23.5  C10.542,104,0,114.542,0,127.5S10.542,151,23.5,151h132.286l90.285,118.487L89.535,474.918c-0.996,1.306-1.535,2.903-1.535,4.545  V495.5c0,4.142,3.358,7.5,7.5,7.5s7.5-3.358,7.5-7.5v-13.504l152.5-200.135l152.523,200.166L408,495.487  c-0.007,4.142,3.345,7.506,7.487,7.513c0.004,0,0.009,0,0.013,0c4.136,0,7.493-3.35,7.5-7.487l0.027-16  c0.003-1.647-0.537-3.249-1.535-4.558L264.929,269.487L355.214,151H487.5c12.958,0,23.5-10.542,23.5-23.5S500.458,104,487.5,104z   M95.189,62.984C95.293,62.989,95.395,63,95.5,63h72c22.332,0,40.5,18.168,40.5,40.5v0.5H88.354L95.189,62.984z M255.5,257.113  L174.644,151h161.712L255.5,257.113z M487.5,136h-464c-4.687,0-8.5-3.813-8.5-8.5s3.813-8.5,8.5-8.5h55.997  c0.004,0,0.008,0.001,0.012,0.001c0.007,0,0.014-0.001,0.022-0.001H487.5c4.687,0,8.5,3.813,8.5,8.5S492.187,136,487.5,136z"></path></svg>